<svg width="28" height="28" viewBox="0 0 28 28" fill="none" xmlns="http://www.w3.org/2000/svg">
<g clip-path="url(#clip0_3_1559)">
<circle cx="14" cy="14" r="14" fill="#FFFFFF"/>
<g clip-path="url(#clip1_3_1559)">
<path d="M19.9648 6H15.5322C15.3944 5.9999 15.2622 6.05435 15.1644 6.15144L6.30289 15.0108C6.1089 15.2057 6 15.4696 6 15.7446C6 16.0196 6.1089 16.2834 6.30289 16.4783L10.5216 20.6971C10.7166 20.8911 10.9805 21 11.2556 21C11.5307 21 11.7945 20.8911 11.9895 20.6971L20.8485 11.8413C20.9456 11.7436 21.0001 11.6113 21 11.4735V7.03846C21.0007 6.90218 20.9744 6.7671 20.9226 6.64102C20.8709 6.51494 20.7947 6.40034 20.6985 6.30382C20.6022 6.2073 20.4879 6.13077 20.362 6.07863C20.236 6.02648 20.1011 5.99976 19.9648 6Z" stroke="white" stroke-linecap="round" stroke-linejoin="round"/>
<path d="M17 10C16.8022 10 16.6089 9.94135 16.4444 9.83147C16.28 9.72159 16.1518 9.56541 16.0761 9.38268C16.0004 9.19996 15.9806 8.99889 16.0192 8.80491C16.0578 8.61093 16.153 8.43275 16.2929 8.29289C16.4327 8.15304 16.6109 8.0578 16.8049 8.01922C16.9989 7.98063 17.2 8.00043 17.3827 8.07612C17.5654 8.15181 17.7216 8.27998 17.8315 8.44443C17.9414 8.60888 18 8.80222 18 9C18 9.26522 17.8946 9.51957 17.7071 9.70711C17.5196 9.89464 17.2652 10 17 10Z" fill="white"/>
<path d="M13 22L21.8646 12.83C21.9086 12.784 21.9433 12.7293 21.9666 12.6692C21.9898 12.6091 22.0012 12.5447 21.9999 12.48V8" stroke="white" stroke-linecap="round" stroke-linejoin="round"/>
</g>
</g>
<defs>
<clipPath id="clip0_3_1559">
<rect width="28" height="28" fill="white" transform="translate(0 28) rotate(-90)"/>
</clipPath>
<clipPath id="clip1_3_1559">
<rect width="18" height="18" fill="white" transform="translate(5 5)"/>
</clipPath>
</defs>
</svg>
